<svg width="88" height="88" viewBox="0 0 88 88" fill="none" xmlns="http://www.w3.org/2000/svg">
<rect width="88" height="88" rx="8" fill="#1E45A8"/>
<path d="M22.8764 34.8186H37.9653V35.7542H24.2599V42.7948H37.1478V43.7304H24.2599V51.4603H38.1224V52.3959H22.8764V34.8186ZM39.3168 34.8186H40.9202L48.0245 42.5486L55.2859 34.8186L65.1626 25L48.9362 43.3611L57.2978 52.3959H55.6315L48.0245 44.1735L40.3861 52.3959H38.7513L47.1757 43.3611L39.3173 34.8186H39.3168ZM57.8952 35.7542V34.8186H75.0897V35.7542H67.1685V52.3955H65.785V35.7542H57.8958H57.8952ZM4 34.8186H5.72909L29.5696 62.6467L19.7172 52.3959L5.44578 36.148L5.38294 52.3959H4V34.8186ZM74.951 51.1779C74.6677 51.1779 74.4559 51.0071 74.4559 50.7866C74.4559 50.5657 74.6677 50.3949 74.9505 50.3949C75.2365 50.3949 75.445 50.5657 75.445 50.7866C75.445 51.0071 75.2365 51.1779 74.9505 51.1779H74.951ZM76.3096 50.1479H77.0501C77.0604 50.4607 77.3534 50.6707 77.7835 50.6707C78.2645 50.6707 78.537 50.4451 78.537 50.0218V47.342H79.2905V50.0243C79.2905 50.7866 78.7255 51.2255 77.79 51.2255C76.9125 51.2255 76.3101 50.7997 76.3101 50.1479H76.3096ZM80.2759 50.1141H81.0229C81.0868 50.4738 81.5375 50.7023 82.187 50.7023C82.792 50.7023 83.2362 50.4577 83.2362 50.1217C83.2362 49.8329 82.954 49.6592 82.311 49.5411L81.6853 49.4231C80.8078 49.2629 80.4069 48.9315 80.4069 48.3745C80.4069 47.6991 81.1133 47.2496 82.1729 47.2496C83.1587 47.2496 83.8792 47.6991 83.9225 48.3374H83.1891C83.1187 47.9883 82.7286 47.7699 82.1631 47.7699C81.5672 47.7699 81.1707 47.9934 81.1707 48.3349C81.1707 48.6056 81.4264 48.7607 82.0591 48.8763L82.5938 48.9787C83.5894 49.16 84 49.4754 84 50.0454C84 50.7706 83.2795 51.2255 82.1295 51.2255C81.0532 51.2255 80.3295 50.7917 80.2759 50.1137V50.1141Z" fill="#F4F4F6"/>
</svg>
