<svg width="32" height="32" viewBox="0 0 32 32" fill="none" xmlns="http://www.w3.org/2000/svg">
<path d="M2.18182 32H7.27273V15.5194L0 8.24854V29.0917C0 30.7009 0.978183 32 2.18182 32Z" fill="#4285F4"/>
<path d="M24.7273 32H29.8182C31.0254 32 32 30.6961 32 29.0917V8.24854L24.7273 15.5194" fill="#34A853"/>
<path d="M24.7273 2.9166V15.5194L32 8.24852V4.37075C32 0.774121 28.92 -1.27627 26.7636 0.880758" fill="#FBBC04"/>
<path d="M7.27274 15.5194V2.91663L16 11.6416L24.7273 2.91663V15.5194L16 24.2444" fill="#EA4335"/>
<path d="M0 4.37075V8.24852L7.27273 15.5194V2.9166L5.23637 0.880758C3.07636 -1.27627 0 0.774121 0 4.37075Z" fill="#C5221F"/>
</svg>
