<svg xmlns="http://www.w3.org/2000/svg" width="256" height="256" viewBox="0 0 100 100"><rect width="100" height="100" rx="20" fill="#4576f4"></rect><path fill="#ffffff" d="M10.92 49.92L35.56 62.72Q35.64 63.12 35.64 63.44Q35.64 63.76 35.64 64.16L35.64 64.16Q35.64 65.36 34.84 66.16Q34.04 66.96 32.68 66.96L32.68 66.96Q31.56 66.96 29.88 65.92L29.88 65.92L5.48 52.64Q4.68 51.44 4.68 50L4.68 50Q4.68 47.76 6.04 46.96L6.04 46.96L32.76 33.28Q35.40 34.24 35.40 36.32L35.40 36.32Q35.40 37.68 34.60 38.44Q33.80 39.20 32.52 40L32.52 40L10.92 49.92ZM60.12 24.32L45.32 82.40Q44.84 82.48 44.36 82.52Q43.88 82.56 43.24 82.56L43.24 82.56Q40.12 82.56 40.12 79.68L40.12 79.68Q40.12 78.80 40.44 77.60Q40.76 76.40 40.92 75.68L40.92 75.68L55.64 17.60Q56.12 17.52 56.64 17.48Q57.16 17.44 57.72 17.44L57.72 17.44Q59.08 17.44 59.96 18.12Q60.84 18.80 60.84 20.32L60.84 20.32Q60.84 21.20 60.60 22.28Q60.36 23.36 60.12 24.32L60.12 24.32ZM89.08 49.84L65.24 37.28Q65.16 36.88 65.16 36.56Q65.16 36.24 65.16 35.84L65.16 35.84Q65.16 34.72 65.92 33.88Q66.68 33.04 68.04 33.04L68.04 33.04Q68.68 33.04 69.36 33.32Q70.04 33.60 70.84 34L70.84 34L94.52 47.28Q95.32 48.48 95.32 50L95.32 50Q95.32 51.20 94.96 51.92Q94.60 52.64 93.96 53.04L93.96 53.04L68.04 66.64Q66.68 66.24 66.04 65.40Q65.40 64.56 65.40 63.60L65.40 63.60Q65.40 62.32 66.16 61.48Q66.92 60.64 68.28 60L68.28 60L89.08 49.84Z"></path></svg>