<svg width="194" height="38" viewBox="0 0 194 38" fill="none" xmlns="http://www.w3.org/2000/svg">
<path d="M43.792 25.072C43.104 25.072 42.56 24.872 42.16 24.472C41.76 24.072 41.56 23.528 41.56 22.84V10.408C41.752 10.376 42.032 10.336 42.4 10.288C42.768 10.224 43.136 10.192 43.504 10.192C44.304 10.192 44.88 10.328 45.232 10.6C45.584 10.872 45.76 11.4 45.76 12.184V21.688H51.256C51.368 21.864 51.472 22.096 51.568 22.384C51.664 22.672 51.712 22.984 51.712 23.32C51.712 23.912 51.584 24.352 51.328 24.64C51.072 24.928 50.72 25.072 50.272 25.072H43.792ZM56.8223 20.776C57.0463 21.352 57.4223 21.76 57.9503 22C58.4783 22.224 59.0703 22.336 59.7263 22.336C60.3983 22.336 61.0383 22.256 61.6463 22.096C62.2543 21.92 62.7423 21.72 63.1103 21.496C63.3663 21.656 63.5823 21.88 63.7583 22.168C63.9343 22.456 64.0223 22.76 64.0223 23.08C64.0223 23.48 63.9103 23.824 63.6863 24.112C63.4623 24.4 63.1423 24.64 62.7263 24.832C62.3263 25.024 61.8463 25.16 61.2863 25.24C60.7263 25.336 60.1103 25.384 59.4383 25.384C58.4943 25.384 57.6143 25.256 56.7983 25C55.9983 24.728 55.3023 24.328 54.7103 23.8C54.1183 23.272 53.6543 22.608 53.3183 21.808C52.9823 21.008 52.8143 20.072 52.8143 19C52.8143 17.944 52.9823 17.04 53.3183 16.288C53.6703 15.52 54.1263 14.896 54.6863 14.416C55.2623 13.92 55.9103 13.56 56.6303 13.336C57.3503 13.096 58.0863 12.976 58.8383 12.976C59.6863 12.976 60.4543 13.104 61.1423 13.36C61.8463 13.616 62.4463 13.968 62.9423 14.416C63.4543 14.864 63.8463 15.4 64.1183 16.024C64.3903 16.648 64.5263 17.328 64.5263 18.064C64.5263 18.608 64.3743 19.024 64.0703 19.312C63.7663 19.6 63.3423 19.784 62.7983 19.864L56.8223 20.776ZM58.8623 15.952C58.2543 15.952 57.7423 16.136 57.3263 16.504C56.9263 16.872 56.6863 17.392 56.6063 18.064L60.6863 17.392C60.6703 17.232 60.6223 17.072 60.5423 16.912C60.4623 16.736 60.3503 16.576 60.2063 16.432C60.0623 16.288 59.8783 16.176 59.6543 16.096C59.4303 16 59.1663 15.952 58.8623 15.952ZM71.4822 22.408C71.7542 22.408 72.0502 22.384 72.3702 22.336C72.7062 22.272 72.9542 22.192 73.1142 22.096V20.176L71.3862 20.32C70.9382 20.352 70.5702 20.448 70.2822 20.608C69.9942 20.768 69.8502 21.008 69.8502 21.328C69.8502 21.648 69.9702 21.912 70.2102 22.12C70.4662 22.312 70.8902 22.408 71.4822 22.408ZM71.2902 12.976C72.1542 12.976 72.9382 13.064 73.6422 13.24C74.3622 13.416 74.9702 13.688 75.4662 14.056C75.9782 14.408 76.3702 14.864 76.6422 15.424C76.9142 15.968 77.0502 16.616 77.0502 17.368V22.744C77.0502 23.16 76.9302 23.504 76.6902 23.776C76.4662 24.032 76.1942 24.256 75.8742 24.448C74.8342 25.072 73.3702 25.384 71.4822 25.384C70.6342 25.384 69.8662 25.304 69.1782 25.144C68.5062 24.984 67.9222 24.744 67.4262 24.424C66.9462 24.104 66.5702 23.696 66.2982 23.2C66.0422 22.704 65.9142 22.128 65.9142 21.472C65.9142 20.368 66.2422 19.52 66.8982 18.928C67.5542 18.336 68.5702 17.968 69.9462 17.824L73.0902 17.488V17.32C73.0902 16.856 72.8822 16.528 72.4662 16.336C72.0662 16.128 71.4822 16.024 70.7142 16.024C70.1222 16.024 69.5302 16.088 68.9382 16.216C68.3622 16.344 67.8422 16.504 67.3782 16.696C67.1702 16.552 66.9942 16.336 66.8502 16.048C66.7062 15.744 66.6342 15.432 66.6342 15.112C66.6342 14.696 66.7302 14.368 66.9222 14.128C67.1302 13.872 67.4422 13.656 67.8582 13.48C68.3222 13.304 68.8662 13.176 69.4902 13.096C70.1302 13.016 70.7302 12.976 71.2902 12.976ZM91.0169 24.976C90.8409 25.024 90.5849 25.072 90.2489 25.12C89.9289 25.168 89.5769 25.192 89.1929 25.192C88.3929 25.192 87.8169 25.064 87.4649 24.808C87.1129 24.536 86.9369 24.024 86.9369 23.272V17.608C86.9369 17.112 86.7849 16.752 86.4809 16.528C86.1929 16.288 85.8089 16.168 85.3289 16.168C85.0089 16.168 84.7049 16.208 84.4169 16.288C84.1449 16.368 83.8809 16.472 83.6249 16.6V24.976C83.4489 25.024 83.1929 25.072 82.8569 25.12C82.5369 25.168 82.1849 25.192 81.8009 25.192C81.0009 25.192 80.4249 25.064 80.0729 24.808C79.7209 24.536 79.5449 24.024 79.5449 23.272V16.048C79.5449 15.616 79.6329 15.264 79.8089 14.992C80.0009 14.72 80.2569 14.472 80.5769 14.248C81.1209 13.864 81.8009 13.56 82.6169 13.336C83.4489 13.096 84.3689 12.976 85.3769 12.976C87.1849 12.976 88.5769 13.376 89.5529 14.176C90.5289 14.96 91.0169 16.064 91.0169 17.488V24.976ZM99.2011 12.976C99.8891 12.976 100.481 13.064 100.977 13.24V9.352C101.153 9.304 101.401 9.256 101.721 9.208C102.057 9.16 102.417 9.136 102.801 9.136C103.601 9.136 104.177 9.272 104.529 9.544C104.881 9.8 105.057 10.304 105.057 11.056V22.432C105.057 23.184 104.705 23.784 104.001 24.232C103.537 24.536 102.937 24.8 102.201 25.024C101.481 25.264 100.641 25.384 99.6811 25.384C97.5851 25.384 95.9531 24.872 94.7851 23.848C93.6171 22.808 93.0331 21.264 93.0331 19.216C93.0331 18.16 93.1931 17.24 93.5131 16.456C93.8331 15.672 94.2651 15.024 94.8091 14.512C95.3691 14 96.0251 13.616 96.7771 13.36C97.5291 13.104 98.3371 12.976 99.2011 12.976ZM101.001 16.432C100.825 16.352 100.633 16.288 100.425 16.24C100.217 16.192 100.001 16.168 99.7771 16.168C98.9451 16.168 98.2971 16.424 97.8331 16.936C97.3851 17.432 97.1611 18.192 97.1611 19.216C97.1611 20.224 97.3771 20.968 97.8091 21.448C98.2411 21.928 98.8571 22.168 99.6571 22.168C99.9451 22.168 100.209 22.136 100.449 22.072C100.689 22.008 100.873 21.936 101.001 21.856V16.432ZM111.104 20.776C111.328 21.352 111.704 21.76 112.232 22C112.76 22.224 113.352 22.336 114.008 22.336C114.68 22.336 115.32 22.256 115.928 22.096C116.536 21.92 117.024 21.72 117.392 21.496C117.648 21.656 117.864 21.88 118.04 22.168C118.216 22.456 118.304 22.76 118.304 23.08C118.304 23.48 118.192 23.824 117.968 24.112C117.744 24.4 117.424 24.64 117.008 24.832C116.608 25.024 116.128 25.16 115.568 25.24C115.008 25.336 114.392 25.384 113.72 25.384C112.776 25.384 111.896 25.256 111.08 25C110.28 24.728 109.584 24.328 108.992 23.8C108.4 23.272 107.936 22.608 107.6 21.808C107.264 21.008 107.096 20.072 107.096 19C107.096 17.944 107.264 17.04 107.6 16.288C107.952 15.52 108.408 14.896 108.968 14.416C109.544 13.92 110.192 13.56 110.912 13.336C111.632 13.096 112.368 12.976 113.12 12.976C113.968 12.976 114.736 13.104 115.424 13.36C116.128 13.616 116.728 13.968 117.224 14.416C117.736 14.864 118.128 15.4 118.4 16.024C118.672 16.648 118.808 17.328 118.808 18.064C118.808 18.608 118.656 19.024 118.352 19.312C118.048 19.6 117.624 19.784 117.08 19.864L111.104 20.776ZM113.144 15.952C112.536 15.952 112.024 16.136 111.608 16.504C111.208 16.872 110.968 17.392 110.888 18.064L114.968 17.392C114.952 17.232 114.904 17.072 114.824 16.912C114.744 16.736 114.632 16.576 114.488 16.432C114.344 16.288 114.16 16.176 113.936 16.096C113.712 16 113.448 15.952 113.144 15.952ZM124.851 24.976C124.675 25.024 124.419 25.072 124.083 25.12C123.763 25.168 123.411 25.192 123.027 25.192C122.227 25.192 121.651 25.064 121.299 24.808C120.947 24.536 120.771 24.024 120.771 23.272V16.144C120.771 15.68 120.891 15.28 121.131 14.944C121.371 14.592 121.699 14.288 122.115 14.032C122.675 13.696 123.323 13.44 124.059 13.264C124.811 13.088 125.595 13 126.411 13C128.155 13 129.027 13.616 129.027 14.848C129.027 15.136 128.987 15.408 128.907 15.664C128.827 15.904 128.731 16.112 128.619 16.288C128.315 16.224 127.875 16.192 127.299 16.192C126.883 16.192 126.451 16.24 126.003 16.336C125.571 16.432 125.187 16.576 124.851 16.768V24.976ZM140.479 21.52C140.479 22.736 140.023 23.688 139.111 24.376C138.199 25.064 136.855 25.408 135.079 25.408C134.407 25.408 133.783 25.36 133.207 25.264C132.631 25.168 132.135 25.024 131.719 24.832C131.319 24.624 130.999 24.368 130.759 24.064C130.535 23.76 130.423 23.4 130.423 22.984C130.423 22.6 130.503 22.28 130.663 22.024C130.823 21.752 131.015 21.528 131.239 21.352C131.703 21.608 132.231 21.84 132.823 22.048C133.431 22.24 134.127 22.336 134.911 22.336C135.407 22.336 135.783 22.264 136.039 22.12C136.311 21.976 136.447 21.784 136.447 21.544C136.447 21.32 136.351 21.144 136.159 21.016C135.967 20.888 135.647 20.784 135.199 20.704L134.479 20.56C133.087 20.288 132.047 19.864 131.359 19.288C130.687 18.696 130.351 17.856 130.351 16.768C130.351 16.176 130.479 15.64 130.735 15.16C130.991 14.68 131.351 14.28 131.815 13.96C132.279 13.64 132.831 13.392 133.471 13.216C134.127 13.04 134.847 12.952 135.631 12.952C136.223 12.952 136.775 13 137.287 13.096C137.815 13.176 138.271 13.304 138.655 13.48C139.039 13.656 139.343 13.888 139.567 14.176C139.791 14.448 139.903 14.776 139.903 15.16C139.903 15.528 139.831 15.848 139.687 16.12C139.559 16.376 139.391 16.592 139.183 16.768C139.055 16.688 138.863 16.608 138.607 16.528C138.351 16.432 138.071 16.352 137.767 16.288C137.463 16.208 137.151 16.144 136.831 16.096C136.527 16.048 136.247 16.024 135.991 16.024C135.463 16.024 135.055 16.088 134.767 16.216C134.479 16.328 134.335 16.512 134.335 16.768C134.335 16.944 134.415 17.088 134.575 17.2C134.735 17.312 135.039 17.416 135.487 17.512L136.231 17.68C137.767 18.032 138.855 18.52 139.495 19.144C140.151 19.752 140.479 20.544 140.479 21.52ZM154.64 19.168C154.64 20.128 154.488 20.992 154.184 21.76C153.896 22.528 153.472 23.184 152.912 23.728C152.368 24.256 151.712 24.664 150.944 24.952C150.176 25.24 149.312 25.384 148.352 25.384C147.392 25.384 146.528 25.248 145.76 24.976C144.992 24.688 144.328 24.28 143.768 23.752C143.224 23.208 142.8 22.552 142.496 21.784C142.208 21.016 142.064 20.144 142.064 19.168C142.064 18.224 142.216 17.368 142.52 16.6C142.824 15.832 143.248 15.184 143.792 14.656C144.352 14.112 145.016 13.696 145.784 13.408C146.552 13.12 147.408 12.976 148.352 12.976C149.296 12.976 150.152 13.128 150.92 13.432C151.688 13.72 152.344 14.136 152.888 14.68C153.448 15.208 153.88 15.856 154.184 16.624C154.488 17.392 154.64 18.24 154.64 19.168ZM148.352 16.168C147.68 16.168 147.16 16.432 146.792 16.96C146.424 17.472 146.24 18.208 146.24 19.168C146.24 20.176 146.424 20.936 146.792 21.448C147.16 21.944 147.68 22.192 148.352 22.192C149.024 22.192 149.544 21.936 149.912 21.424C150.28 20.912 150.464 20.16 150.464 19.168C150.464 18.208 150.28 17.472 149.912 16.96C149.544 16.432 149.024 16.168 148.352 16.168ZM168.103 24.976C167.927 25.024 167.671 25.072 167.335 25.12C167.015 25.168 166.663 25.192 166.279 25.192C165.479 25.192 164.903 25.064 164.551 24.808C164.199 24.536 164.023 24.024 164.023 23.272V17.608C164.023 17.112 163.871 16.752 163.567 16.528C163.279 16.288 162.895 16.168 162.415 16.168C162.095 16.168 161.791 16.208 161.503 16.288C161.231 16.368 160.967 16.472 160.711 16.6V24.976C160.535 25.024 160.279 25.072 159.943 25.12C159.623 25.168 159.271 25.192 158.887 25.192C158.087 25.192 157.511 25.064 157.159 24.808C156.807 24.536 156.631 24.024 156.631 23.272V16.048C156.631 15.616 156.719 15.264 156.895 14.992C157.087 14.72 157.343 14.472 157.663 14.248C158.207 13.864 158.887 13.56 159.703 13.336C160.535 13.096 161.455 12.976 162.463 12.976C164.271 12.976 165.663 13.376 166.639 14.176C167.615 14.96 168.103 16.064 168.103 17.488V24.976Z" fill="#1E45A8"/>
<path d="M25.6 3H6.4C2.86538 3 0 5.86538 0 9.4V28.6C0 32.1346 2.86538 35 6.4 35H25.6C29.1346 35 32 32.1346 32 28.6V9.4C32 5.86538 29.1346 3 25.6 3Z" fill="#4576F4"/>
<path d="M3.4944 18.9744L11.3792 23.0704C11.3963 23.1557 11.4048 23.2325 11.4048 23.3008C11.4048 23.3691 11.4048 23.4459 11.4048 23.5312C11.4048 23.7872 11.3195 24.0005 11.1488 24.1712C10.9781 24.3419 10.7477 24.4272 10.4576 24.4272C10.2187 24.4272 9.92 24.3163 9.5616 24.0944L1.7536 19.8448C1.58294 19.5888 1.4976 19.3072 1.4976 19C1.4976 18.5221 1.64267 18.1979 1.9328 18.0272L10.4832 13.6496C11.0464 13.8544 11.328 14.1787 11.328 14.6224C11.328 14.9125 11.2427 15.1387 11.072 15.3008C10.9013 15.4629 10.6795 15.6293 10.4064 15.8L3.4944 18.9744ZM19.2384 10.7824L14.5024 29.368C14.4 29.3851 14.2976 29.3979 14.1952 29.4064C14.0928 29.4149 13.9733 29.4192 13.8368 29.4192C13.1712 29.4192 12.8384 29.112 12.8384 28.4976C12.8384 28.3099 12.8725 28.088 12.9408 27.832C13.0091 27.576 13.0603 27.3712 13.0944 27.2176L17.8048 8.63201C17.9072 8.61494 18.0139 8.60214 18.1248 8.59361C18.2357 8.58508 18.3509 8.58081 18.4704 8.58081C18.7605 8.58081 18.9995 8.65334 19.1872 8.79841C19.3749 8.94348 19.4688 9.17814 19.4688 9.50241C19.4688 9.69014 19.4432 9.89921 19.392 10.1296C19.3408 10.36 19.2896 10.5776 19.2384 10.7824ZM28.5056 18.9488L20.8768 14.9296C20.8597 14.8443 20.8512 14.7675 20.8512 14.6992C20.8512 14.6309 20.8512 14.5541 20.8512 14.4688C20.8512 14.2299 20.9323 14.0208 21.0944 13.8416C21.2565 13.6624 21.4827 13.5728 21.7728 13.5728C21.9093 13.5728 22.0501 13.6027 22.1952 13.6624C22.3403 13.7221 22.4981 13.7947 22.6688 13.88L30.2464 18.1296C30.4171 18.3856 30.5024 18.6757 30.5024 19C30.5024 19.256 30.464 19.4608 30.3872 19.6144C30.3104 19.768 30.2037 19.8875 30.0672 19.9728L21.7728 24.3248C21.4827 24.2395 21.2693 24.1072 21.1328 23.928C20.9963 23.7488 20.928 23.5568 20.928 23.352C20.928 23.0789 21.0091 22.8528 21.1712 22.6736C21.3333 22.4944 21.5595 22.3365 21.8496 22.2L28.5056 18.9488Z" fill="white"/>
</svg>
